<?xml version="1.0" encoding="utf-8"?>
<!-- Generator: Adobe Illustrator 28.0.0, SVG Export Plug-In . SVG Version: 6.00 Build 0)  -->
<svg version="1.1" id="Laag_1" xmlns="http://www.w3.org/2000/svg" xmlns:xlink="http://www.w3.org/1999/xlink" x="0px" y="0px"
	 viewBox="0 0 368.9 420.9" style="enable-background:new 0 0 368.9 420.9;" xml:space="preserve">
<style type="text/css">
	.st0{fill:#FFFFFF;}
</style>
<g>
	<path d="M313.9,159.2c-0.6,17.4-5.9,33.5-12.3,49.2c-12.4,30.7-29.3,59.1-47.2,86.8c-19.4,30-40.2,58.9-62.2,86.9
		c-6.5,8.3-14.9,8.5-21.2,0.4C139,341.5,108.8,299,83.3,253.5c-10.7-19-20.1-38.6-27.3-59.2c-9.6-27.3-8.1-54.3,2.5-80.7
		c17.7-44.2,50.1-72.2,96.6-81.9c72.6-15.2,140,31.8,155.1,100.6C312,141.1,312.7,150.3,313.9,159.2z M181.4,196.7
		c25.9,0.2,47.8-21.5,48-47.5c0.2-26.2-21.3-48.2-47.4-48.4c-26.4-0.2-48.3,21.4-48.3,47.8C133.5,174.8,155.1,196.5,181.4,196.7z"/>
	<path class="st0" d="M181.4,196.7c-26.3-0.2-47.9-21.8-47.8-48c0.1-26.4,22-48,48.3-47.8c26.1,0.2,47.6,22.1,47.4,48.4
		C229.1,175.2,207.3,196.8,181.4,196.7z"/>
</g>
</svg>
